<svg class="thumb" width="1000" height="1000" viewBox="0,0,600,600" xmlns="http://www.w3.org/2000/svg" xmlns:inkscape="http://www.inkscape.org/namespaces/inkscape" xmlns:sodipodi="http://sodipodi.sourceforge.net/DTD/sodipodi-0.dtd" xmlns:xlink="http://www.w3.org/1999/xlink" xmlns:ns1="http://www.inkscape.org/namespaces/inkscape" xmlns:sketch="http://www.bohemiancoding.com/sketch/ns">
  <defs></defs>
  <g transform="matrix(1.507,0,0,1.507,-106.8991,125.9835)">
    <g transform="matrix(0.098,0,0,0.098,90.3381,124.89)">
      <svg class="thumb" width="187.0337218024264" height="186.77" viewBox="-5.131860901213205,-5,187.0337218024264,186.77">
        <defs>
          <linearGradient x1="0" y1="0.5" x2="1" y2="0.5" id="linearGradientSjyt2s6bt4">
            <stop offset="0%" stop-color="#e78200"></stop>
            <stop offset="100%" stop-color="#e78200"></stop>
          </linearGradient>
        </defs>
        <g></g>
        <g></g>
        <g>
          <circle fill="url('#linearGradientSjyt2s6bt4')" style="" cx="88.385" cy="88.385" r="88.385" stroke="none"></circle>
        </g>
      </svg>
    </g>
    <g transform="matrix(0.098,0,0,0.098,431.338,124.89)">
      <svg class="thumb" width="187.0337218024264" height="186.77" viewBox="-5.131860901213205,-5,187.0337218024264,186.77">
        <defs>
          <linearGradient x1="0" y1="0.5" x2="1" y2="0.5" id="linearGradientSjyt2s6bta">
            <stop offset="0%" stop-color="#e78200"></stop>
            <stop offset="100%" stop-color="#e78200"></stop>
          </linearGradient>
        </defs>
        <g></g>
        <g></g>
        <g>
          <circle fill="url('#linearGradientSjyt2s6bta')" style="" cx="88.385" cy="88.385" r="88.385" stroke="none"></circle>
        </g>
      </svg>
    </g>
    <g transform="matrix(0.9944,0,0,0.9944,123.8342,0.489)">
      <svg width="283.9" height="235" style="overflow: visible;">
        <defs>
          <linearGradient x1="0" y1="0.5" x2="1" y2="0.5" id="linearGradientSjyt2s6btm">
            <stop offset="0%" stop-color="#009cbf"></stop>
            <stop offset="100%" stop-color="#009cbf"></stop>
          </linearGradient>
        </defs>
        <g transform="matrix(1,0,0,1,0,131.25)">
          <path d="M 45.3 0.5Q 33.4 0.5  24.6-3.85Q 15.8-8.2  11.1-16.2Q 6.4-24.2  6.4-34.8L 6.4-34.8Q 6.4-49.5  11.95-60.9Q 17.5-72.3  27-78.55Q 36.5-84.8  48.1-84.8L 48.1-84.8Q 58.9-84.8  64.5-79.25Q 70.1-73.7  70.1-64.6L 70.1-64.6Q 70.1-58.5  67.95-54.8Q 65.8-51.1  61.8-51.1L 61.8-51.1Q 59-51.1  57.4-52.4Q 55.8-53.7  55.8-56.2L 55.8-56.2Q 55.8-57.1  56.2-59.5L 56.2-59.5Q 56.8-62.5  56.8-64.3L 56.8-64.3Q 56.8-73.4  47.1-73.4L 47.1-73.4Q 40.5-73.4  34.5-69.1Q 28.5-64.8  24.8-56.45Q 21.1-48.1  21.1-36.6L 21.1-36.6Q 21.1-24.6  27.8-18.05Q 34.5-11.5  47.6-11.5L 47.6-11.5Q 54.1-11.5  60.75-13.15Q 67.4-14.8  75.5-18.2L 75.5-18.2Q 77-18.8  78-18.8L 78-18.8Q 79.6-18.8  80.4-17.6Q 81.2-16.4  81.2-14.5L 81.2-14.5Q 81.2-8.4  74.6-5.5L 74.6-5.5Q 67.5-2.4  59.85-0.95Q 52.2 0.5  45.3 0.5L 45.3 0.5ZM 85.69999999999999 0.5Q 79.5 0.5  75.8-4Q 72.1-8.5  72.1-15.8L 72.1-15.8Q 72.1-23.8  75.8-30.95Q 79.5-38.1  85.64999999999999-42.45Q 91.8-46.8  98.69999999999999-46.8L 98.69999999999999-46.8Q 100.89999999999999-46.8  101.64999999999999-45.95Q 102.39999999999999-45.1  102.89999999999999-42.9L 102.89999999999999-42.9Q 105-43.3  107.3-43.3L 107.3-43.3Q 112.19999999999999-43.3  112.19999999999999-39.8L 112.19999999999999-39.8Q 112.19999999999999-37.7  110.69999999999999-29.8L 110.69999999999999-29.8Q 108.39999999999999-18.3  108.39999999999999-13.8L 108.39999999999999-13.8Q 108.39999999999999-12.3  109.14999999999999-11.4Q 109.89999999999999-10.5  111.1-10.5L 111.1-10.5Q 113-10.5  115.69999999999999-12.95Q 118.39999999999999-15.4  123-20.9L 123-20.9Q 124.19999999999999-22.3  125.69999999999999-22.3L 125.69999999999999-22.3Q 127-22.3  127.75-21.1Q 128.5-19.9  128.5-17.8L 128.5-17.8Q 128.5-13.8  126.6-11.6L 126.6-11.6Q 122.5-6.5  117.89999999999999-3Q 113.3 0.5  109 0.5L 109 0.5Q 105.69999999999999 0.5  102.94999999999999-1.75Q 100.19999999999999-4  98.8-7.9L 98.8-7.9Q 93.6 0.5  85.69999999999999 0.5L 85.69999999999999 0.5ZM 89.3-9.6Q 91.5-9.6  93.5-12.2Q 95.5-14.8  96.39999999999999-19.1L 96.39999999999999-19.1L 100.1-37.5Q 95.89999999999999-37.4  92.35-34.35Q 88.8-31.3  86.69999999999999-26.3Q 84.6-21.3  84.6-15.7L 84.6-15.7Q 84.6-12.6  85.85-11.1Q 87.1-9.6  89.3-9.6L 89.3-9.6ZM 139.00000000000003 2.7Q 133.8 2.7  131.05 0.3Q 128.3-2.1  128.3-5.1L 128.3-5.1Q 128.3-7.7  130.20000000000002-9.6Q 132.10000000000002-11.5  135.8-11.5L 135.8-11.5Q 137.10000000000002-11.5  138.85000000000002-11.25Q 140.60000000000002-11  141.50000000000003-10.9L 141.50000000000003-10.9Q 141.40000000000003-13.5  140.35000000000002-15.8Q 139.3-18.1  137.70000000000002-20.25Q 136.10000000000002-22.4  134.70000000000002-24L 134.70000000000002-24Q 131.60000000000002-18.1  128.55-14.2Q 125.50000000000003-10.3  121.90000000000002-6.8L 121.90000000000002-6.8Q 120.10000000000002-5  118.10000000000002-5L 118.10000000000002-5Q 116.50000000000003-5 115.50000000000003-6.15Q 114.50000000000003-7.3 114.50000000000003-9L 114.50000000000003-9Q 114.50000000000003-11  115.90000000000002-12.7L 115.90000000000002-12.7L 117.20000000000002-14.3Q 122.70000000000002-21.1  125.50000000000003-25.5L 125.50000000000003-25.5Q 127.20000000000002-28.4  129.50000000000003-33.25Q 131.8-38.1  134.00000000000003-43.3L 134.00000000000003-43.3Q 135.90000000000003-47.7  141.90000000000003-47.7L 141.90000000000003-47.7Q 144.70000000000002-47.7  145.8-47.2Q 146.90000000000003-46.7  146.90000000000003-45.6L 146.90000000000003-45.6Q 146.90000000000003-45  146.50000000000003-43.7Q 146.10000000000002-42.4  145.40000000000003-41.1L 145.40000000000003-41.1Q 143.60000000000002-37.5  143.60000000000002-35L 143.60000000000002-35Q 143.60000000000002-33.5  144.65000000000003-31.7Q 145.70000000000002-29.9  147.90000000000003-27.2L 147.90000000000003-27.2Q 151.10000000000002-23  152.75000000000003-20.05Q 154.40000000000003-17.1  154.40000000000003-13.6L 154.40000000000003-13.6Q 154.40000000000003-12.6  154.20000000000002-10.8L 154.20000000000002-10.8Q 159.10000000000002-12.7  165.70000000000002-20.9L 165.70000000000002-20.9Q 166.90000000000003-22.3  168.40000000000003-22.3L 168.40000000000003-22.3Q 169.70000000000002-22.3  170.45000000000002-21.1Q 171.20000000000002-19.9  171.20000000000002-17.8L 171.20000000000002-17.8Q 171.20000000000002-14  169.3-11.6L 169.3-11.6Q 164.3-5.4  159.75000000000003-3.15Q 155.20000000000002-0.9  148.50000000000003-0.7L 148.50000000000003-0.7Q 144.50000000000003 2.7  139.00000000000003 2.7L 139.00000000000003 2.7ZM 175.4 0.5Q 169.20000000000002 0.5  165.5-4Q 161.8-8.5  161.8-15.8L 161.8-15.8Q 161.8-23.8  165.5-30.95Q 169.20000000000002-38.1  175.35000000000002-42.45Q 181.5-46.8  188.4-46.8L 188.4-46.8Q 190.60000000000002-46.8  191.35000000000002-45.95Q 192.10000000000002-45.1  192.60000000000002-42.9L 192.60000000000002-42.9Q 194.70000000000002-43.3  197-43.3L 197-43.3Q 201.9-43.3  201.9-39.8L 201.9-39.8Q 201.9-37.7  200.4-29.8L 200.4-29.8Q 198.10000000000002-18.3  198.10000000000002-13.8L 198.10000000000002-13.8Q 198.10000000000002-12.3  198.85000000000002-11.4Q 199.60000000000002-10.5  200.8-10.5L 200.8-10.5Q 202.70000000000002-10.5  205.4-12.95Q 208.10000000000002-15.4  212.70000000000002-20.9L 212.70000000000002-20.9Q 213.9-22.3  215.4-22.3L 215.4-22.3Q 216.70000000000002-22.3  217.45000000000002-21.1Q 218.20000000000002-19.9  218.20000000000002-17.8L 218.20000000000002-17.8Q 218.20000000000002-13.8  216.3-11.6L 216.3-11.6Q 212.20000000000002-6.5  207.60000000000002-3Q 203 0.5  198.70000000000002 0.5L 198.70000000000002 0.5Q 195.4 0.5  192.65-1.75Q 189.9-4  188.5-7.9L 188.5-7.9Q 183.3 0.5  175.4 0.5L 175.4 0.5ZM 179-9.6Q 181.20000000000002-9.6  183.20000000000002-12.2Q 185.20000000000002-14.8  186.10000000000002-19.1L 186.10000000000002-19.1L 189.8-37.5Q 185.60000000000002-37.4  182.05-34.35Q 178.5-31.3  176.4-26.3Q 174.3-21.3  174.3-15.7L 174.3-15.7Q 174.3-12.6  175.55-11.1Q 176.8-9.6  179-9.6L 179-9.6ZM 248-22.3Q 249.29999999999998-22.3  250.04999999999998-21.1Q 250.79999999999998-19.9  250.79999999999998-17.8L 250.79999999999998-17.8Q 250.79999999999998-13.8  248.89999999999998-11.6L 248.89999999999998-11.6Q 244.59999999999997-6.3  239.54999999999998-2.9Q 234.49999999999997 0.5  228.1 0.5L 228.1 0.5Q 219.29999999999998 0.5  215.04999999999998-7.5Q 210.79999999999998-15.5  210.79999999999998-28.2L 210.79999999999998-28.2Q 210.79999999999998-40.4  213.95-56Q 217.1-71.6  223.24999999999997-82.8Q 229.39999999999998-94  237.89999999999998-94L 237.89999999999998-94Q 242.7-94  245.45-89.55Q 248.2-85.1  248.2-76.8L 248.2-76.8Q 248.2-64.9  241.59999999999997-49.2Q 234.99999999999997-33.5  223.7-18.1L 223.7-18.1Q 224.39999999999998-14  225.99999999999997-12.25Q 227.6-10.5  230.2-10.5L 230.2-10.5Q 234.29999999999998-10.5  237.39999999999998-12.85Q 240.5-15.2  245.29999999999998-20.9L 245.29999999999998-20.9Q 246.5-22.3  248-22.3L 248-22.3ZM 235.7-84.1Q 233.39999999999998-84.1  230.49999999999997-75.8Q 227.6-67.5  225.39999999999998-55.2Q 223.2-42.9  222.99999999999997-31.6L 222.99999999999997-31.6Q 230.1-43.3  234.29999999999998-55.05Q 238.5-66.8  238.5-76.5L 238.5-76.5Q 238.5-84.1  235.7-84.1L 235.7-84.1ZM 253.99999999999997 0.5Q 247.79999999999998 0.5  244.09999999999997-4Q 240.39999999999998-8.5  240.39999999999998-15.8L 240.39999999999998-15.8Q 240.39999999999998-23.8  244.09999999999997-30.95Q 247.79999999999998-38.1  253.95-42.45Q 260.09999999999997-46.8  267-46.8L 267-46.8Q 269.2-46.8  269.95-45.95Q 270.7-45.1  271.2-42.9L 271.2-42.9Q 273.29999999999995-43.3  275.59999999999997-43.3L 275.59999999999997-43.3Q 280.5-43.3  280.5-39.8L 280.5-39.8Q 280.5-37.7  279-29.8L 279-29.8Q 276.7-18.3  276.7-13.8L 276.7-13.8Q 276.7-12.3  277.45-11.4Q 278.2-10.5  279.4-10.5L 279.4-10.5Q 281.29999999999995-10.5  284-12.95Q 286.7-15.4  291.29999999999995-20.9L 291.29999999999995-20.9Q 292.5-22.3  294-22.3L 294-22.3Q 295.29999999999995-22.3  296.04999999999995-21.1Q 296.79999999999995-19.9  296.79999999999995-17.8L 296.79999999999995-17.8Q 296.79999999999995-13.8  294.9-11.6L 294.9-11.6Q 290.79999999999995-6.5  286.2-3Q 281.59999999999997 0.5  277.29999999999995 0.5L 277.29999999999995 0.5Q 274 0.5  271.25-1.75Q 268.5-4  267.09999999999997-7.9L 267.09999999999997-7.9Q 261.9 0.5  253.99999999999997 0.5L 253.99999999999997 0.5ZM 257.59999999999997-9.6Q 259.79999999999995-9.6  261.79999999999995-12.2Q 263.79999999999995-14.8  264.7-19.1L 264.7-19.1L 268.4-37.5Q 264.2-37.4  260.65-34.35Q 257.09999999999997-31.3  254.99999999999997-26.3Q 252.89999999999998-21.3  252.89999999999998-15.7L 252.89999999999998-15.7Q 252.89999999999998-12.6  254.14999999999998-11.1Q 255.39999999999998-9.6  257.59999999999997-9.6L 257.59999999999997-9.6Z" data-textpath="Casala" data-text-anchor="middle" data-font-size="100" data-letterspacing="0" data-side="left" data-offset="0.5" data-dx="0" data-dy="0" data-xmlspace="preserve" data-href="" data-font="Pacifico" data-font-src="/Content/clientfonts/pacifico.woff" data-font-scale="contain" transform="translate(0,0)" data-x="0" data-y="0" fill="url('#linearGradientSjyt2s6btm')"></path>
        </g>
      </svg>
    </g>
    <g transform="matrix(0.3824,0,0,0.3824,168.4636,157.1021)">
      <svg width="557.1999999999999" height="185" style="overflow: visible;">
        <defs>
          <linearGradient x1="0" y1="0.5" x2="1" y2="0.5" id="linearGradientSjyt2s6btp">
            <stop offset="0%" stop-color="#000000"></stop>
            <stop offset="100%" stop-color="#000000"></stop>
          </linearGradient>
        </defs>
        <g transform="matrix(1,0,0,1,0,93.75)">
          <path d="M 17.3 0L 9 0L 9-65.6L 29.5-65.6Q 34.5-65.6  38.75-64.65Q 43-63.7  46.05-61.5Q 49.1-59.3  50.8-55.8Q 52.5-52.3  52.5-47.2L 52.5-47.2Q 52.5-39.5  48.5-34.9Q 44.5-30.3  37.7-28.6L 37.7-28.6L 54.4 0L 45 0L 29.2-27.7L 17.3-27.7L 17.3 0ZM 17.3-58.9L 17.3-34.5L 28.3-34.5Q 36-34.5  40.1-37.65Q 44.2-40.8  44.2-47.2L 44.2-47.2Q 44.2-53.7  40.1-56.3Q 36-58.9  28.3-58.9L 28.3-58.9L 17.3-58.9ZM 104.70000000000002 0L 65.9 0L 65.9-65.6L 103.70000000000002-65.6L 103.70000000000002-58.6L 74.20000000000002-58.6L 74.20000000000002-38L 99.10000000000002-38L 99.10000000000002-30.9L 74.20000000000002-30.9L 74.20000000000002-7.1L 104.70000000000002-7.1L 104.70000000000002 0ZM 136.80000000000004 1.2L 136.80000000000004 1.2Q 129.90000000000003 1.2  124.00000000000004-1.4Q 118.10000000000004-4  113.80000000000004-8.5L 113.80000000000004-8.5L 118.80000000000004-14.3Q 122.30000000000004-10.6  127.05000000000004-8.35Q 131.80000000000004-6.1  136.90000000000003-6.1L 136.90000000000003-6.1Q 143.40000000000003-6.1  147.00000000000003-9.05Q 150.60000000000002-12  150.60000000000002-16.8L 150.60000000000002-16.8Q 150.60000000000002-19.3  149.75000000000003-21.05Q 148.90000000000003-22.8  147.45000000000005-24.05Q 146.00000000000003-25.3  144.00000000000003-26.3Q 142.00000000000003-27.3  139.70000000000005-28.4L 139.70000000000005-28.4L 130.30000000000004-32.5Q 128.00000000000003-33.5  125.60000000000004-34.9Q 123.20000000000003-36.3  121.30000000000004-38.3Q 119.40000000000003-40.3  118.20000000000003-43.05Q 117.00000000000004-45.8  117.00000000000004-49.4L 117.00000000000004-49.4Q 117.00000000000004-53.1  118.55000000000004-56.3Q 120.10000000000004-59.5  122.85000000000004-61.85Q 125.60000000000004-64.2  129.35000000000002-65.5Q 133.10000000000002-66.8  137.60000000000002-66.8L 137.60000000000002-66.8Q 143.50000000000003-66.8  148.50000000000003-64.55Q 153.50000000000003-62.3  157.00000000000003-58.7L 157.00000000000003-58.7L 152.50000000000003-53.3Q 149.50000000000003-56.2  145.85000000000002-57.85Q 142.20000000000005-59.5  137.60000000000002-59.5L 137.60000000000002-59.5Q 132.10000000000002-59.5  128.75000000000003-56.95Q 125.40000000000003-54.4  125.40000000000003-49.9L 125.40000000000003-49.9Q 125.40000000000003-47.5  126.35000000000004-45.85Q 127.30000000000004-44.2  128.90000000000003-42.95Q 130.50000000000003-41.7  132.40000000000003-40.75Q 134.30000000000004-39.8  136.30000000000004-39L 136.30000000000004-39L 145.60000000000002-35Q 148.40000000000003-33.8  150.90000000000003-32.25Q 153.40000000000003-30.7  155.20000000000005-28.65Q 157.00000000000003-26.6  158.05000000000004-23.85Q 159.10000000000002-21.1  159.10000000000002-17.5L 159.10000000000002-17.5Q 159.10000000000002-13.6  157.55000000000004-10.2Q 156.00000000000003-6.8  153.10000000000002-4.25Q 150.20000000000005-1.7  146.10000000000002-0.25Q 142.00000000000003 1.2  136.80000000000004 1.2ZM 192 0L 183.6 0L 183.6-58.6L 163.8-58.6L 163.8-65.6L 211.8-65.6L 211.8-58.6L 192-58.6L 192 0ZM 230.90000000000003-36.7L 230.90000000000003-36.7L 227.8-26.7L 247.50000000000003-26.7L 244.40000000000003-36.7Q 242.60000000000002-42.2  241.00000000000003-47.65Q 239.40000000000003-53.1  237.8-58.8L 237.8-58.8L 237.40000000000003-58.8Q 235.90000000000003-53.1  234.3-47.65Q 232.70000000000002-42.2  230.90000000000003-36.7ZM 219.40000000000003 0L 210.90000000000003 0L 233.10000000000002-65.6L 242.50000000000003-65.6L 264.70000000000005 0L 255.8 0L 249.60000000000002-20L 225.70000000000002-20L 219.40000000000003 0ZM 295.80000000000007 1.2L 295.80000000000007 1.2Q 290.80000000000007 1.2  286.45000000000005-0.25Q 282.1000000000001-1.7  278.95000000000005-5.05Q 275.80000000000007-8.4  274.00000000000006-13.8Q 272.20000000000005-19.2  272.20000000000005-27.1L 272.20000000000005-27.1L 272.20000000000005-65.6L 280.50000000000006-65.6L 280.50000000000006-26.9Q 280.50000000000006-21  281.70000000000005-17Q 282.90000000000003-13  284.95000000000005-10.6Q 287.00000000000006-8.2  289.80000000000007-7.15Q 292.6000000000001-6.1  295.80000000000007-6.1L 295.80000000000007-6.1Q 299.1000000000001-6.1  301.90000000000003-7.15Q 304.70000000000005-8.2  306.80000000000007-10.6Q 308.90000000000003-13  310.1000000000001-17Q 311.30000000000007-21  311.30000000000007-26.9L 311.30000000000007-26.9L 311.30000000000007-65.6L 319.30000000000007-65.6L 319.30000000000007-27.1Q 319.30000000000007-19.2  317.50000000000006-13.8Q 315.70000000000005-8.4  312.55000000000007-5.05Q 309.40000000000003-1.7  305.1000000000001-0.25Q 300.80000000000007 1.2  295.80000000000007 1.2ZM 345.30000000000007 0L 337.00000000000006 0L 337.00000000000006-65.6L 357.50000000000006-65.6Q 362.50000000000006-65.6  366.75000000000006-64.65Q 371.00000000000006-63.7  374.05000000000007-61.5Q 377.1000000000001-59.3  378.80000000000007-55.8Q 380.50000000000006-52.3  380.50000000000006-47.2L 380.50000000000006-47.2Q 380.50000000000006-39.5  376.50000000000006-34.9Q 372.50000000000006-30.3  365.70000000000005-28.6L 365.70000000000005-28.6L 382.40000000000003 0L 373.00000000000006 0L 357.20000000000005-27.7L 345.30000000000007-27.7L 345.30000000000007 0ZM 345.30000000000007-58.9L 345.30000000000007-34.5L 356.30000000000007-34.5Q 364.00000000000006-34.5  368.1000000000001-37.65Q 372.20000000000005-40.8  372.20000000000005-47.2L 372.20000000000005-47.2Q 372.20000000000005-53.7  368.1000000000001-56.3Q 364.00000000000006-58.9  356.30000000000007-58.9L 356.30000000000007-58.9L 345.30000000000007-58.9ZM 404.80000000000007-36.7L 404.80000000000007-36.7L 401.70000000000005-26.7L 421.40000000000003-26.7L 418.30000000000007-36.7Q 416.50000000000006-42.2  414.90000000000003-47.65Q 413.30000000000007-53.1  411.70000000000005-58.8L 411.70000000000005-58.8L 411.30000000000007-58.8Q 409.80000000000007-53.1  408.20000000000005-47.65Q 406.6000000000001-42.2  404.80000000000007-36.7ZM 393.30000000000007 0L 384.80000000000007 0L 407.00000000000006-65.6L 416.40000000000003-65.6L 438.6000000000001 0L 429.70000000000005 0L 423.50000000000006-20L 399.6000000000001-20L 393.30000000000007 0ZM 455.8 0L 447.90000000000003 0L 447.90000000000003-65.6L 456.50000000000006-65.6L 480.20000000000005-24.4L 487.3-10.8L 487.70000000000005-10.8Q 487.40000000000003-15.8  487.05-21.15Q 486.70000000000005-26.5  486.70000000000005-31.7L 486.70000000000005-31.7L 486.70000000000005-65.6L 494.6-65.6L 494.6 0L 486.00000000000006 0L 462.20000000000005-41.3L 455.1-54.8L 454.70000000000005-54.8Q 455.1-49.8  455.45000000000005-44.65Q 455.8-39.5  455.8-34.3L 455.8-34.3L 455.8 0ZM 534.6000000000001 0L 526.2 0L 526.2-58.6L 506.4000000000001-58.6L 506.4000000000001-65.6L 554.4000000000001-65.6L 554.4000000000001-58.6L 534.6000000000001-58.6L 534.6000000000001 0Z" data-textpath="RESTAURANT" data-text-anchor="middle" data-font-size="100" data-letterspacing="0" data-side="left" data-offset="0.5" data-dx="0" data-dy="0" data-xmlspace="preserve" data-href="" data-font="Source Sans Pro" data-font-src="/Content/clientfonts/sourcesanspro.woff" data-font-scale="contain" transform="translate(0,0)" data-x="0" data-y="0" fill="url('#linearGradientSjyt2s6btp')"></path>
        </g>
      </svg>
    </g>
  </g>
</svg>